<svg viewBox="0 0 32 32" xmlns="http://www.w3.org/2000/svg"><g fill="none" fill-rule="evenodd"><path d="M31 31H1V1h30v30z"/><path d="M31 2.88v16.87h-5.63v7.68l-4-2.95v2.74l-9.38.02L7.86 31H4.74v-3.7H1V12.36h5.63V2.88H31z" fill="#F6F6F6"/><path d="M19.75 23.27v2.1H12.1L6.62 29v-3.63H2.88V14.13h3.75V16H4.75v7.5H8.5v2.03l2.8-2.03h6.57v-1.62l1.88 1.4z" fill="#424242"/><path d="M17.88 6.63h9.37V16h-5.63v4.09l-3.54-3.55-.55-.55h-7.17V6.62h7.5zM8.5 4.75v13.13h8.26l6.74 5.57v-5.57h5.63V4.74H8.5z" fill="#424242"/><path d="M25.38 10.38H12.24V8.5h13.13v1.88zM21.63 14.13h-9.38v-1.88h9.38v1.88z" fill="#424242"/><path d="M8.5 25.53V23.5" fill="#F6F6F6"/><g fill="#F0EFF1"><path d="M17.88 21.88v1.62H11.3l-2.8 2.03V23.5H4.75V16h1.88v3.75h8.36l2.88 2.13zM17.88 6.63h-7.5V16h7.15l.55.55 3.55 3.54V16h5.62V6.62h-9.38zm3.75 7.5h-9.38v-1.88h9.38v1.88zm3.75-3.76H12.24V8.5h13.13v1.88z"/></g></g></svg>