<svg xmlns="http://www.w3.org/2000/svg" viewBox="0 0 32 32"><path d="M30.512 1.488c.325.326.488.716.488 1.172v26.68c0 .456-.163.846-.488 1.172-.326.325-.716.488-1.172.488h-7.637V19.38h3.887l.586-4.532h-4.473v-2.89c0-.73.153-1.277.46-1.642.305-.364.9-.546 1.786-.546l2.382-.02V5.707c-.82-.117-1.98-.176-3.477-.176-1.77 0-3.186.522-4.248 1.564-1.06 1.04-1.59 2.513-1.59 4.414v3.34h-3.908v4.53h3.906V31H2.66c-.456 0-.846-.163-1.172-.488C1.163 30.186 1 29.796 1 29.34V2.66c0-.456.163-.846.488-1.172C1.814 1.163 2.204 1 2.66 1h26.68c.456 0 .846.163 1.172.488z"/></svg>