<svg xmlns="http://www.w3.org/2000/svg" viewBox="0 0 32 32"><path d="M31 16.37q0 4.9-2.86 8.8-2.86 3.93-7.4 5.43-.52.1-.77-.13-.24-.24-.24-.6v-4.1q0-1.9-1.02-2.78 1.2-.2 2.1-.4.9-.3 1.87-.8.95-.5 1.58-1.3.65-.8 1.05-2.1.4-1.27.4-2.93 0-2.38-1.54-4.04.7-1.78-.16-3.98-.57-.2-1.6.2t-1.8.85l-.75.47q-1.83-.5-3.76-.5t-3.76.5l-.8-.54Q11 8.16 9.9 7.7q-1.13-.4-1.7-.23-.86 2.2-.14 3.97-1.54 1.68-1.54 4.05 0 1.6.4 2.9.4 1.23 1.02 2.02.63.8 1.58 1.3.94.53 1.83.77.9.25 2 .37-.77.7-.94 2-.4.2-.82.3-.47.1-1.1.1-.66 0-1.3-.44-.63-.4-1.08-1.2-.38-.63-.95-1-.52-.4-.9-.5l-.4-.03q-.4 0-.57.1-.15.1-.1.24.06.13.18.26t.26.2l.15.1q.44.2.86.73t.63 1l.2.43q.23.75.84 1.2.6.47 1.3.6.7.13 1.34.14.65 0 1.08-.04l.46-.08v2.74q0 .35-.26.6-.25.22-.8.12-4.5-1.5-7.37-5.42-3-3.74-3-8.64 0-4.1 2-7.54 2-3.44 5.45-5.46 3.45-2 7.53-2t7.6 2q3.4 2 5.4 5.46 2 3.44 2 7.53z"/></svg>