<svg xmlns="http://www.w3.org/2000/svg" viewBox="0 0 32 32"><path d="M31 11.815v13.292q0 1.105-.787 1.892-.787.78-1.892.78H3.68q-1.106 0-1.893-.79Q1 26.21 1 25.102v-13.29q.737.82 1.69 1.46 6.06 4.12 8.32 5.78.955.705 1.55 1.1.594.392 1.582.802.987.41 1.84.41h.035q.854 0 1.84-.41.99-.41 1.583-.804.595-.393 1.55-1.096 2.845-2.06 8.336-5.778.954-.652 1.674-1.455zm0-4.922q0 1.322-.82 2.528t-2.043 2.06l-7.835 5.44-.71.51q-.545.4-.905.64t-.87.55q-.51.3-.963.45-.452.15-.837.15h-.034q-.385 0-.837-.15-.452-.15-.962-.45-.51-.302-.87-.544-.36-.243-.905-.637l-.72-.51q-1.525-1.07-4.388-3.055-2.86-1.984-3.43-2.386-1.04-.704-1.96-1.935Q1 8.315 1 7.26q0-1.305.695-2.175.695-.87 1.984-.87h24.64q1.09 0 1.88.786.792.79.792 1.9z"/></svg>