<svg xmlns="http://www.w3.org/2000/svg" viewBox="0 0 32 32"><path fill="#000" fill-rule="evenodd" d="M30.86 16.55c-.225-.445-.682-.726-1.18-.726h-3.09v-7.06C26.59 7.79 25.8 7 24.827 7H14.678c-.975 0-1.765.79-1.765 1.765 0 .975.79 1.765 1.765 1.765h7.942c.243 0 .44.197.44.44v4.854h-3.088c-.498 0-.955.28-1.18.726-.225.445-.182.98.113 1.38l4.853 6.62c.25.34.647.54 1.068.54.42 0 .818-.2 1.067-.54l4.854-6.62c.295-.402.338-.935.113-1.38zm-13.535 5.01H9.383c-.238 0-.428-.188-.438-.423l-.003-4.87h3.088c.5 0 .956-.282 1.18-.727.226-.445.183-.98-.112-1.38L8.245 7.54C7.995 7.2 7.6 7 7.177 7c-.422 0-.818.2-1.068.54l-4.854 6.62c-.295.402-.34.935-.113 1.38.225.445.682.726 1.18.726h3.09l.004 7.06c0 .975.79 1.764 1.765 1.764h10.144c.974 0 1.765-.79 1.765-1.765 0-.975-.79-1.765-1.764-1.765z"/></svg>