<svg xmlns="http://www.w3.org/2000/svg" viewBox="0 0 32 32"><path d="M31 6.7q-1.28 1.88-3.08 3.2.02.26.02.8 0 2.46-.73 4.93-.7 2.46-2.2 4.73-1.46 2.26-3.5 4-2.04 1.75-4.9 2.8-2.88 1.02-6.16 1.02-5.16 0-9.44-2.76.67.08 1.48.08 4.3 0 7.64-2.63-2-.04-3.58-1.23-1.58-1.2-2.17-3.03.63.1 1.16.1.82 0 1.62-.2-2.13-.44-3.53-2.13-1.4-1.68-1.4-3.9v-.1q1.3.74 2.78.8-1.26-.84-2-2.2-.74-1.35-.74-2.93 0-1.67.83-3.1 2.3 2.84 5.6 4.54 3.3 1.7 7.07 1.9-.15-.73-.15-1.4 0-2.57 1.8-4.36 1.8-1.8 4.35-1.8 2.66 0 4.5 1.94 2.07-.4 3.9-1.5-.7 2.2-2.7 3.4 1.76-.2 3.53-.95z"/></svg>