<svg xmlns="http://www.w3.org/2000/svg" viewBox="0 0 32 32"><path d="M22.43 15.714c0-.413-.17-.714-.504-.904l-8.57-5.357c-.347-.223-.71-.234-1.09-.033-.368.2-.552.513-.552.937V21.07c0 .426.184.738.553.94.178.088.35.133.52.133.222 0 .412-.056.568-.168l8.57-5.357c.336-.19.504-.49.504-.904zm8.57 0c0 1.072-.006 1.91-.017 2.51-.01.604-.058 1.366-.142 2.287-.083.92-.208 1.744-.376 2.47-.178.815-.563 1.5-1.155 2.06-.592.557-1.284.88-2.077.97-2.477.28-6.222.42-11.233.42-5.01 0-8.756-.14-11.233-.42-.793-.09-1.487-.413-2.085-.97-.597-.56-.984-1.245-1.163-2.06-.157-.726-.277-1.55-.36-2.47-.085-.92-.132-1.682-.143-2.285-.01-.602-.017-1.44-.017-2.51 0-1.072.006-1.91.017-2.512.01-.603.058-1.364.142-2.285.083-.92.208-1.744.376-2.47.178-.814.563-1.5 1.155-2.058.592-.56 1.284-.882 2.077-.97C7.244 5.14 10.99 5 16 5c5.01 0 8.756.14 11.233.42.793.088 1.487.41 2.085.97.597.558.984 1.244 1.163 2.06.157.724.277 1.547.36 2.468.085.92.132 1.682.143 2.285.01.603.017 1.44.017 2.51z"/></svg>